<?xml version="1.0" encoding="UTF-8" standalone="no"?><!-- Generator: Gravit.io --><svg xmlns="http://www.w3.org/2000/svg" xmlns:xlink="http://www.w3.org/1999/xlink" style="isolation:isolate" viewBox="168.228 937.663 1205.985 1124.673" width="1205.985pt" height="1124.673pt"><g><defs><filter id="GYThVx57XG08CHoI33P3iGLpqKQ1ziF3" x="-200%" y="-200%" width="400%" height="400%" filterUnits="objectBoundingBox" color-interpolation-filters="sRGB"><feGaussianBlur xmlns="http://www.w3.org/2000/svg" in="SourceGraphic" stdDeviation="2.146804531419514"/><feOffset xmlns="http://www.w3.org/2000/svg" dx="0" dy="0" result="pf_100_offsetBlur"/><feFlood xmlns="http://www.w3.org/2000/svg" flood-color="#000000" flood-opacity="0.65"/><feComposite xmlns="http://www.w3.org/2000/svg" in2="pf_100_offsetBlur" operator="in" result="pf_100_dropShadow"/><feBlend xmlns="http://www.w3.org/2000/svg" in="SourceGraphic" in2="pf_100_dropShadow" mode="normal"/></filter></defs><g filter="url(#GYThVx57XG08CHoI33P3iGLpqKQ1ziF3)"><path d=" M 244.095 1505.637 L 775.254 2055.337 L 1296.915 1505.637 C 1296.915 1505.637 1296.915 1505.637 1296.915 1505.612 C 1400.461 1367.862 1388.413 1172.362 1268.74 1049.137 C 1149.115 925.937 959.197 913.387 825.265 1019.887 C 792.961 1045.562 775.229 1059.712 775.229 1059.712 C 775.229 1059.712 757.304 1045.262 724.78 1019.062 C 590.339 910.737 398.672 921.812 276.885 1045.037 C 155.123 1168.212 141.011 1365.237 243.925 1505.462 C 243.998 1505.587 244.046 1505.637 244.046 1505.637 L 244.095 1505.637 Z " fill-rule="evenodd" fill="rgb(183,28,28)"/></g><defs><filter id="270wOXPGLwu6xzmJb6A6937TkU3ctkak" x="-200%" y="-200%" width="400%" height="400%" filterUnits="objectBoundingBox" color-interpolation-filters="sRGB"><feGaussianBlur xmlns="http://www.w3.org/2000/svg" in="SourceGraphic" stdDeviation="2.146804531419514"/><feOffset xmlns="http://www.w3.org/2000/svg" dx="0" dy="0" result="pf_100_offsetBlur"/><feFlood xmlns="http://www.w3.org/2000/svg" flood-color="#000000" flood-opacity="0.65"/><feComposite xmlns="http://www.w3.org/2000/svg" in2="pf_100_offsetBlur" operator="in" result="pf_100_dropShadow"/><feBlend xmlns="http://www.w3.org/2000/svg" in="SourceGraphic" in2="pf_100_dropShadow" mode="normal"/></filter></defs><g filter="url(#270wOXPGLwu6xzmJb6A6937TkU3ctkak)"><path d=" M 554.767 1802.4 L 554.767 1102.968 L 829.053 1102.968 L 829.053 1102.968 Q 888.039 1102.968 934.638 1117.132 L 934.638 1117.132 L 934.638 1117.132 Q 981.237 1131.296 1013.679 1158.336 L 1013.679 1158.336 L 1013.679 1158.336 Q 1046.122 1185.376 1062.933 1224.262 L 1062.933 1224.262 L 1062.933 1224.262 Q 1079.744 1263.148 1079.744 1312.592 L 1079.744 1312.592 L 1079.744 1312.592 Q 1079.744 1357.401 1061.753 1398.347 L 1061.753 1398.347 L 1061.753 1398.347 Q 1043.762 1439.294 1008.076 1470.969 L 1008.076 1470.969 L 1008.076 1470.969 Q 972.389 1502.644 919.302 1521.443 L 919.302 1521.443 L 919.302 1521.443 Q 866.214 1540.242 796.021 1540.242 L 796.021 1540.242 L 796.021 1540.242 Q 773.606 1540.242 754.14 1539.727 L 754.14 1539.727 L 754.14 1539.727 Q 734.675 1539.212 719.928 1538.182 L 719.928 1538.182 L 719.928 1538.182 Q 702.822 1537.152 688.666 1535.607 L 688.666 1535.607 L 688.666 1802.4 L 554.767 1802.4 Z  M 688.666 1192.586 L 688.666 1448.564 L 688.666 1448.564 Q 697.514 1449.594 715.21 1450.882 L 715.21 1450.882 L 715.21 1450.882 Q 732.905 1452.17 757.68 1452.17 L 757.68 1452.17 L 757.68 1452.17 Q 797.79 1452.17 831.707 1444.959 L 831.707 1444.959 L 831.707 1444.959 Q 865.624 1437.748 890.399 1422.039 L 890.399 1422.039 L 890.399 1422.039 Q 915.173 1406.331 929.034 1381.093 L 929.034 1381.093 L 929.034 1381.093 Q 942.896 1355.856 942.896 1319.803 L 942.896 1319.803 L 942.896 1319.803 Q 942.896 1290.96 936.113 1267.525 L 936.113 1267.525 L 936.113 1267.525 Q 929.329 1244.091 914.878 1227.352 L 914.878 1227.352 L 914.878 1227.352 Q 900.426 1210.613 877.422 1201.6 L 877.422 1201.6 L 877.422 1201.6 Q 854.417 1192.586 821.975 1192.586 L 821.975 1192.586 L 688.666 1192.586 Z " fill="rgb(255,255,255)"/></g></g></svg>