<?xml version="1.0" encoding="UTF-8" standalone="no"?><!-- Generator: Gravit.io --><svg xmlns="http://www.w3.org/2000/svg" xmlns:xlink="http://www.w3.org/1999/xlink" style="isolation:isolate" viewBox="168.228 937.663 2663.544 1124.673" width="2663.544pt" height="1124.673pt"><g><g><defs><filter id="FBEuohaclb55usHUJhbe6vGEeliRozsQ" x="-200%" y="-200%" width="400%" height="400%" filterUnits="objectBoundingBox" color-interpolation-filters="sRGB"><feGaussianBlur xmlns="http://www.w3.org/2000/svg" in="SourceGraphic" stdDeviation="2.146804531419514"/><feOffset xmlns="http://www.w3.org/2000/svg" dx="0" dy="0" result="pf_100_offsetBlur"/><feFlood xmlns="http://www.w3.org/2000/svg" flood-color="#000000" flood-opacity="0.65"/><feComposite xmlns="http://www.w3.org/2000/svg" in2="pf_100_offsetBlur" operator="in" result="pf_100_dropShadow"/><feBlend xmlns="http://www.w3.org/2000/svg" in="SourceGraphic" in2="pf_100_dropShadow" mode="normal"/></filter></defs><g filter="url(#FBEuohaclb55usHUJhbe6vGEeliRozsQ)"><path d=" M 244.095 1505.637 L 775.254 2055.337 L 1296.915 1505.637 C 1296.915 1505.637 1296.915 1505.637 1296.915 1505.612 C 1400.461 1367.862 1388.413 1172.362 1268.74 1049.137 C 1149.115 925.937 959.197 913.387 825.265 1019.887 C 792.961 1045.562 775.229 1059.712 775.229 1059.712 C 775.229 1059.712 757.304 1045.262 724.78 1019.062 C 590.339 910.737 398.672 921.812 276.885 1045.037 C 155.123 1168.212 141.011 1365.237 243.925 1505.462 C 243.998 1505.587 244.046 1505.637 244.046 1505.637 L 244.095 1505.637 Z " fill-rule="evenodd" fill="rgb(183,28,28)"/></g><defs><filter id="rbwAmr3Crc4W3nKLrufUj90KaKRqswWQ" x="-200%" y="-200%" width="400%" height="400%" filterUnits="objectBoundingBox" color-interpolation-filters="sRGB"><feGaussianBlur xmlns="http://www.w3.org/2000/svg" in="SourceGraphic" stdDeviation="2.146804531419514"/><feOffset xmlns="http://www.w3.org/2000/svg" dx="0" dy="0" result="pf_100_offsetBlur"/><feFlood xmlns="http://www.w3.org/2000/svg" flood-color="#000000" flood-opacity="0.65"/><feComposite xmlns="http://www.w3.org/2000/svg" in2="pf_100_offsetBlur" operator="in" result="pf_100_dropShadow"/><feBlend xmlns="http://www.w3.org/2000/svg" in="SourceGraphic" in2="pf_100_dropShadow" mode="normal"/></filter></defs><g filter="url(#rbwAmr3Crc4W3nKLrufUj90KaKRqswWQ)"><path d=" M 554.767 1802.4 L 554.767 1102.968 L 829.053 1102.968 L 829.053 1102.968 Q 888.039 1102.968 934.638 1117.132 L 934.638 1117.132 L 934.638 1117.132 Q 981.237 1131.296 1013.679 1158.336 L 1013.679 1158.336 L 1013.679 1158.336 Q 1046.122 1185.376 1062.933 1224.262 L 1062.933 1224.262 L 1062.933 1224.262 Q 1079.744 1263.148 1079.744 1312.592 L 1079.744 1312.592 L 1079.744 1312.592 Q 1079.744 1357.401 1061.753 1398.347 L 1061.753 1398.347 L 1061.753 1398.347 Q 1043.762 1439.294 1008.076 1470.969 L 1008.076 1470.969 L 1008.076 1470.969 Q 972.389 1502.644 919.302 1521.443 L 919.302 1521.443 L 919.302 1521.443 Q 866.214 1540.242 796.021 1540.242 L 796.021 1540.242 L 796.021 1540.242 Q 773.606 1540.242 754.14 1539.727 L 754.14 1539.727 L 754.14 1539.727 Q 734.675 1539.212 719.928 1538.182 L 719.928 1538.182 L 719.928 1538.182 Q 702.822 1537.152 688.666 1535.607 L 688.666 1535.607 L 688.666 1802.4 L 554.767 1802.4 Z  M 688.666 1192.586 L 688.666 1448.564 L 688.666 1448.564 Q 697.514 1449.594 715.21 1450.882 L 715.21 1450.882 L 715.21 1450.882 Q 732.905 1452.17 757.68 1452.17 L 757.68 1452.17 L 757.68 1452.17 Q 797.79 1452.17 831.707 1444.959 L 831.707 1444.959 L 831.707 1444.959 Q 865.624 1437.748 890.399 1422.039 L 890.399 1422.039 L 890.399 1422.039 Q 915.173 1406.331 929.034 1381.093 L 929.034 1381.093 L 929.034 1381.093 Q 942.896 1355.856 942.896 1319.803 L 942.896 1319.803 L 942.896 1319.803 Q 942.896 1290.96 936.113 1267.525 L 936.113 1267.525 L 936.113 1267.525 Q 929.329 1244.091 914.878 1227.352 L 914.878 1227.352 L 914.878 1227.352 Q 900.426 1210.613 877.422 1201.6 L 877.422 1201.6 L 877.422 1201.6 Q 854.417 1192.586 821.975 1192.586 L 821.975 1192.586 L 688.666 1192.586 Z " fill="rgb(255,255,255)"/></g></g><defs><filter id="uZVG40qLjr4VS35p2LnBMjcn3n5Nt72a" x="-200%" y="-200%" width="400%" height="400%" filterUnits="objectBoundingBox" color-interpolation-filters="sRGB"><feGaussianBlur xmlns="http://www.w3.org/2000/svg" in="SourceGraphic" stdDeviation="2.146804531419514"/><feOffset xmlns="http://www.w3.org/2000/svg" dx="0" dy="0" result="pf_100_offsetBlur"/><feFlood xmlns="http://www.w3.org/2000/svg" flood-color="#000000" flood-opacity="0.65"/><feComposite xmlns="http://www.w3.org/2000/svg" in2="pf_100_offsetBlur" operator="in" result="pf_100_dropShadow"/><feBlend xmlns="http://www.w3.org/2000/svg" in="SourceGraphic" in2="pf_100_dropShadow" mode="normal"/></filter></defs><g filter="url(#uZVG40qLjr4VS35p2LnBMjcn3n5Nt72a)"><path d=" M 1386.112 1843.266 L 1386.112 1843.266 Q 1294.623 1843.28 1246.585 1797.852 L 1246.585 1797.852 L 1246.585 1797.852 Q 1198.547 1752.425 1198.534 1667.548 L 1198.534 1667.548 L 1198.455 1134.317 L 1324.252 1134.298 L 1324.332 1675.517 L 1324.332 1675.517 Q 1324.338 1711.466 1340.922 1727.44 L 1340.922 1727.44 L 1340.922 1727.44 Q 1357.507 1743.415 1388.385 1743.41 L 1388.385 1743.41 L 1388.385 1743.41 Q 1419.262 1743.405 1435.842 1727.426 L 1435.842 1727.426 L 1435.842 1727.426 Q 1452.422 1711.446 1452.417 1675.498 L 1452.417 1675.498 L 1452.336 1134.279 L 1573.559 1134.262 L 1573.638 1667.492 L 1573.638 1667.492 Q 1573.651 1752.37 1525.626 1797.811 L 1525.626 1797.811 L 1525.626 1797.811 Q 1477.601 1843.252 1386.112 1843.266 L 1386.112 1843.266 Z  M 1662.864 1833.239 L 1662.761 1134.248 L 1788.557 1134.23 L 1788.647 1733.365 L 1995.64 1733.334 L 1995.655 1833.19 L 1662.864 1833.239 Z  M 2219.804 1843.142 L 2219.804 1843.142 Q 2128.315 1843.156 2081.42 1797.728 L 2081.42 1797.728 L 2081.42 1797.728 Q 2034.526 1752.301 2034.513 1667.423 L 2034.513 1667.423 L 2034.507 1627.481 L 2153.442 1627.463 L 2153.449 1675.394 L 2153.449 1675.394 Q 2153.46 1743.296 2218.645 1743.286 L 2218.645 1743.286 L 2218.645 1743.286 Q 2250.666 1743.282 2267.246 1726.803 L 2267.246 1726.803 L 2267.246 1726.803 Q 2283.826 1710.324 2283.821 1673.377 L 2283.821 1673.377 L 2283.821 1673.377 Q 2283.814 1629.441 2260.937 1595.993 L 2260.937 1595.993 L 2260.937 1595.993 Q 2238.06 1562.544 2176.298 1515.621 L 2176.298 1515.621 L 2176.298 1515.621 Q 2098.524 1455.719 2067.639 1407.294 L 2067.639 1407.294 L 2067.639 1407.294 Q 2036.754 1358.869 2036.745 1297.956 L 2036.745 1297.956 L 2036.745 1297.956 Q 2036.733 1215.076 2084.758 1169.634 L 2084.758 1169.634 L 2084.758 1169.634 Q 2132.783 1124.193 2224.271 1124.179 L 2224.271 1124.179 L 2224.271 1124.179 Q 2314.617 1124.166 2360.94 1169.593 L 2360.94 1169.593 L 2360.94 1169.593 Q 2407.262 1215.021 2407.275 1299.898 L 2407.275 1299.898 L 2407.279 1328.856 L 2288.344 1328.874 L 2288.339 1292.926 L 2288.339 1292.926 Q 2288.333 1256.978 2272.32 1240.504 L 2272.32 1240.504 L 2272.32 1240.504 Q 2256.307 1224.03 2225.43 1224.035 L 2225.43 1224.035 L 2225.43 1224.035 Q 2162.531 1224.044 2162.541 1290.948 L 2162.541 1290.948 L 2162.541 1290.948 Q 2162.547 1328.893 2185.996 1361.842 L 2185.996 1361.842 L 2185.996 1361.842 Q 2209.444 1394.791 2271.207 1441.714 L 2271.207 1441.714 L 2271.207 1441.714 Q 2350.125 1501.616 2379.866 1550.541 L 2379.866 1550.541 L 2379.866 1550.541 Q 2409.607 1599.466 2409.617 1665.371 L 2409.617 1665.371 L 2409.617 1665.371 Q 2409.629 1751.247 2361.033 1797.188 L 2361.033 1797.188 L 2361.033 1797.188 Q 2312.436 1843.128 2219.804 1843.142 L 2219.804 1843.142 Z  M 2481.689 1833.117 L 2481.585 1134.126 L 2824.668 1134.075 L 2824.683 1233.932 L 2607.397 1233.964 L 2607.425 1418.697 L 2780.109 1418.671 L 2780.124 1518.527 L 2607.44 1518.553 L 2607.471 1733.243 L 2824.757 1733.211 L 2824.772 1833.066 L 2481.689 1833.117 Z " fill="rgb(38,50,56)"/></g></g></svg>